<svg width="565" height="767" viewBox="0 0 565 767" fill="none" xmlns="http://www.w3.org/2000/svg">
<g clip-path="url(#clip0_2610_2291)">
<path fill-rule="evenodd" clip-rule="evenodd" d="M164.972 25.7228C200.574 9.21581 240.233 0 282.029 0C418.942 0 532.943 98.8866 556.442 229.073C528.739 196.166 495.229 168.306 457.499 147.076C405.615 117.882 345.752 101.221 282.029 101.221C226.394 101.221 173.703 113.92 126.695 136.572C132.911 96.8896 146.102 59.5091 164.972 25.7228Z" fill="white"/>
<path fill-rule="evenodd" clip-rule="evenodd" d="M560.84 273.982C560.868 275.612 560.882 277.245 560.882 278.881C560.882 432.783 435.932 557.732 282.03 557.732C246.864 557.732 213.211 551.209 182.213 539.307C220.029 531.145 255.635 517.009 287.991 497.941C393.824 435.575 464.894 320.415 464.894 188.79C464.894 185.504 464.85 182.227 464.762 178.961C502.849 203.808 535.583 236.189 560.84 273.982Z" fill="white"/>
<path fill-rule="evenodd" clip-rule="evenodd" d="M144.886 521.643C60.3056 473.731 3.17578 382.904 3.17578 278.837C3.17578 181.512 53.144 95.7665 128.802 45.875C113.853 80.211 104.125 117.334 100.622 156.24L100.621 156.253C99.6561 166.956 99.1636 177.794 99.1636 188.746C99.1636 313.12 162.619 422.793 258.898 487.116C223.992 505.019 185.54 516.975 144.886 521.643Z" fill="white"/>
</g>
<path d="M50.0243 746.717C19.0441 746.717 5.49865 726.735 5.49865 699.778C5.49865 673.223 19.0441 652.838 50.0243 652.838C81.0045 652.838 94.4159 673.357 94.4159 699.778C94.4159 726.6 81.0045 746.717 50.0243 746.717ZM17.1665 699.778C17.1665 724.857 27.225 737.464 50.0243 737.464C72.8236 737.464 82.748 724.857 82.748 699.778C82.748 674.699 72.8236 662.092 50.0243 662.092C27.225 662.092 17.1665 674.699 17.1665 699.778ZM115.251 713.86C115.519 727.673 122.627 737.732 143.28 737.732C161.654 737.732 167.287 731.428 167.287 721.102C167.287 711.714 162.324 707.02 151.059 705.142L130.003 701.924C114.58 699.644 107.472 691.999 107.472 678.588C107.472 664.238 118.201 652.838 141.269 652.838C164.738 652.838 176.272 664.64 177.479 681.807H166.616C165.409 669.736 158.033 661.555 141.269 661.555C125.443 661.555 118.738 668.395 118.738 678.32C118.738 685.293 121.956 690.792 132.149 692.401L154.412 695.754C170.237 698.302 178.552 705.276 178.552 719.627C178.552 736.659 168.225 746.449 143.28 746.449C114.446 746.449 104.387 731.428 104.387 713.86H115.251ZM232.597 746.717C201.885 746.717 188.071 726.869 188.071 699.778C188.071 672.955 202.153 652.838 232.865 652.838C260.358 652.838 272.831 666.383 275.111 688.512H263.711C261.833 671.077 252.043 662.092 232.731 662.092C210.334 662.092 199.739 674.833 199.739 699.778C199.739 724.723 210.066 737.464 232.463 737.464C252.714 737.464 262.906 727.003 263.979 708.897H275.379C274.038 731.563 261.297 746.717 232.597 746.717ZM281.621 744.438V735.452H300.531V664.238H281.621V655.252H330.573V664.238H311.663V735.452H330.573V744.438H281.621ZM412.879 730.221C412.879 736.793 413.817 741.085 414.622 744.438H403.759C402.82 741.487 402.15 737.061 402.15 730.624V722.443C402.15 709.702 395.31 704.472 382.971 704.472H357.892V744.438H346.761V655.252H388.336C406.709 655.252 415.695 664.372 415.695 678.722C415.695 690.658 408.319 698.973 398.394 701.253C406.844 703.667 412.879 707.69 412.879 720.834V730.221ZM357.892 696.157H386.995C399.467 696.157 404.027 689.853 404.027 679.661C404.027 669.334 398.797 664.238 387.129 664.238H357.892V696.157ZM426.998 744.438V735.452H445.908V664.238H426.998V655.252H475.95V664.238H457.04V735.452H475.95V744.438H426.998ZM495.195 713.86C495.463 727.673 502.571 737.732 523.225 737.732C541.598 737.732 547.231 731.428 547.231 721.102C547.231 711.714 542.269 707.02 531.003 705.142L509.947 701.924C494.524 699.644 487.416 691.999 487.416 678.588C487.416 664.238 498.146 652.838 521.213 652.838C544.683 652.838 556.217 664.64 557.424 681.807H546.56C545.353 669.736 537.977 661.555 521.213 661.555C505.388 661.555 498.682 668.395 498.682 678.32C498.682 685.293 501.901 690.792 512.093 692.401L534.356 695.754C550.182 698.302 558.497 705.276 558.497 719.627C558.497 736.659 548.17 746.449 523.225 746.449C494.39 746.449 484.332 731.428 484.332 713.86H495.195Z" fill="white"/>
<defs>
<clipPath id="clip0_2610_2291">
<rect width="557.976" height="557.976" fill="white" transform="translate(3.17578)"/>
</clipPath>
</defs>
</svg>
