<svg width="1821" height="307" viewBox="0 0 1821 307" fill="none" xmlns="http://www.w3.org/2000/svg">
<path d="M1613.89 199.303C1614.76 244.42 1637.98 277.272 1705.44 277.272C1765.45 277.272 1783.84 256.685 1783.84 222.957C1783.84 192.295 1767.64 176.964 1730.84 170.831L1662.07 160.319C1611.7 152.872 1588.48 127.905 1588.48 84.1016C1588.48 37.2325 1623.52 0 1698.87 0C1775.52 0 1813.19 38.5466 1817.13 94.6143H1781.65C1777.71 55.1917 1753.62 28.4719 1698.87 28.4719C1647.18 28.4719 1625.28 50.8114 1625.28 83.2255C1625.28 106.003 1635.79 123.962 1669.08 129.219L1741.79 140.169C1793.48 148.492 1820.64 171.269 1820.64 218.139C1820.64 273.768 1786.91 305.744 1705.44 305.744C1611.26 305.744 1578.41 256.685 1578.41 199.303H1613.89Z" fill="white"/>
<path d="M1391.15 299.164V269.816H1452.91V37.2229H1391.15V7.875H1551.03V37.2229H1489.27V269.816H1551.03V299.164H1391.15Z" fill="white"/>
<path d="M1345.03 252.733C1345.03 274.197 1348.1 288.214 1350.73 299.164H1315.25C1312.18 289.528 1309.99 275.073 1309.99 254.047V227.328C1309.99 185.715 1287.65 168.632 1247.35 168.632H1165.44V299.164H1129.08V7.875H1264.87C1324.88 7.875 1354.23 37.661 1354.23 84.5301C1354.23 123.515 1330.14 150.673 1297.73 158.119C1325.32 166.004 1345.03 179.144 1345.03 222.071V252.733ZM1165.44 141.474H1260.49C1301.23 141.474 1316.12 120.887 1316.12 87.5963C1316.12 53.8681 1299.04 37.2229 1260.93 37.2229H1165.44V141.474Z" fill="white"/>
<path d="M916.332 299.164V269.816H978.094V37.2229H916.332V7.875H1076.21V37.2229H1014.45V269.816H1076.21V299.164H916.332Z" fill="white"/>
<path d="M756.212 306.62C655.903 306.62 610.786 241.792 610.786 153.31C610.786 65.7044 656.779 0 757.088 0C846.884 0 887.621 44.2409 895.067 116.516H857.835C851.702 59.5719 819.726 30.224 756.65 30.224C683.499 30.224 648.895 71.8368 648.895 153.31C648.895 234.784 682.623 276.396 755.774 276.396C821.916 276.396 855.206 242.23 858.711 183.096H895.943C891.563 257.123 849.95 306.62 756.212 306.62Z" fill="white"/>
<path d="M372.947 199.303C373.823 244.42 397.039 277.272 464.495 277.272C524.505 277.272 542.902 256.685 542.902 222.957C542.902 192.295 526.695 176.964 489.901 170.831L421.13 160.319C370.757 152.872 347.541 127.905 347.541 84.1016C347.541 37.2325 382.584 0 457.925 0C534.58 0 572.25 38.5466 576.193 94.6143H540.712C536.77 55.1917 512.678 28.4719 457.925 28.4719C406.237 28.4719 384.336 50.8114 384.336 83.2255C384.336 106.003 394.849 123.962 428.139 129.219L500.852 140.169C552.539 148.492 579.697 171.269 579.697 218.139C579.697 273.768 545.969 305.744 464.495 305.744C370.319 305.744 337.467 256.685 337.467 199.303H372.947Z" fill="white"/>
<g clip-path="url(#clip0_2610_2289)">
<path fill-rule="evenodd" clip-rule="evenodd" d="M88.6566 14.0949C108.165 5.04983 129.896 0 152.798 0C227.82 0 290.287 54.1852 303.163 125.521C287.984 107.49 269.622 92.2237 248.947 80.5907C220.517 64.5937 187.716 55.464 152.798 55.464C122.313 55.464 93.4407 62.423 67.6826 74.8348C71.0884 53.0909 78.3167 32.6082 88.6566 14.0949Z" fill="white"/>
<path fill-rule="evenodd" clip-rule="evenodd" d="M305.572 150.122C305.587 151.015 305.595 151.91 305.595 152.806C305.595 237.137 237.129 305.604 152.798 305.604C133.528 305.604 115.088 302.029 98.1025 295.507C118.824 291.035 138.334 283.289 156.064 272.841C214.056 238.667 252.998 175.565 252.998 103.441C252.998 101.64 252.974 99.8443 252.926 98.0547C273.796 111.67 291.733 129.413 305.572 150.122Z" fill="white"/>
<path fill-rule="evenodd" clip-rule="evenodd" d="M77.6506 285.831C31.3044 259.578 0 209.809 0 152.785C0 99.4557 27.3802 52.471 68.837 25.1328C60.6459 43.9473 55.3155 64.2892 53.3957 85.6076L53.3951 85.6147C52.8666 91.4794 52.5968 97.4182 52.5968 103.42C52.5968 171.571 87.3674 231.666 140.124 266.912C120.997 276.722 99.9271 283.273 77.6506 285.831Z" fill="white"/>
</g>
<defs>
<clipPath id="clip0_2610_2289">
<rect width="305.745" height="305.745" fill="white"/>
</clipPath>
</defs>
</svg>
